<?xml version="1.0" standalone="no"?><!DOCTYPE svg PUBLIC "-//W3C//DTD SVG 1.1//EN" "http://www.w3.org/Graphics/SVG/1.1/DTD/svg11.dtd"><svg t="1770881647263" class="icon" viewBox="0 0 1024 1024" version="1.1" xmlns="http://www.w3.org/2000/svg" p-id="13639" xmlns:xlink="http://www.w3.org/1999/xlink" width="200" height="200"><path d="M725.333333 960H128c-23.466667 0-42.666667-19.2-42.666667-42.666667V277.333333c0-23.466667 19.2-42.666667 42.666667-42.666666h128V106.666667c0-23.466667 19.2-42.666667 42.666667-42.666667h597.333333c23.466667 0 42.666667 19.2 42.666667 42.666667v640c0 23.466667-19.2 42.666667-42.666667 42.666666h-128v128c0 23.466667-19.2 42.666667-42.666667 42.666667zM170.666667 874.666667h512V320H170.666667v554.666667z m170.666666-725.333334v85.333334h384c23.466667 0 42.666667 19.2 42.666667 42.666666v426.666667h85.333333V149.333333H341.333333z" fill="#8166e7" p-id="13640"></path><path d="M298.666667 490.666667h128c23.466667 0 42.666667-19.2 42.666666-42.666667s-19.2-42.666667-42.666666-42.666667h-128c-23.466667 0-42.666667 19.2-42.666667 42.666667s19.2 42.666667 42.666667 42.666667M512 576H298.666667c-23.466667 0-42.666667 19.2-42.666667 42.666667s19.2 42.666667 42.666667 42.666666h213.333333c23.466667 0 42.666667-19.2 42.666667-42.666666s-19.2-42.666667-42.666667-42.666667" fill="#8166e7" p-id="13641"></path></svg>