<?xml version="1.0" standalone="no"?><!DOCTYPE svg PUBLIC "-//W3C//DTD SVG 1.1//EN" "http://www.w3.org/Graphics/SVG/1.1/DTD/svg11.dtd"><svg t="1770864608259" class="icon" viewBox="0 0 1024 1024" version="1.1" xmlns="http://www.w3.org/2000/svg" p-id="10479" xmlns:xlink="http://www.w3.org/1999/xlink" width="200" height="200"><path d="M798.88269 853.364862a34.61888 34.61888 0 0 1 0 8.891188c0 69.048587-156.82542 125.044153-350.350638 125.044153s-350.350637-56.752263-350.350637-125.044153a48.99612 48.99612 0 0 1 0-9.080362 41.996675 41.996675 0 0 1 0-8.512839v-165.149086a41.8075 41.8075 0 0 1 12.485498-30.078699 42.564197 42.564197 0 0 1 30.078699-12.485498h616.518752A42.564197 42.564197 0 0 1 800.206909 679.513763v165.149086a33.105487 33.105487 0 0 1 0 8.702013z" fill="#D2EAFF" p-id="10480"></path><path d="M566.198411 354.701644h191.065953a75.669684 75.669684 0 0 1 71.318677 52.779605 157.014594 157.014594 0 0 1 3.215961 308.164788v46.347682c0 145.853316-173.283577 257.276926-382.321078 257.276926S67.156845 908.036209 67.156845 761.993719a100.829854 100.829854 0 0 1 0-10.593756 41.050804 41.050804 0 0 1 0-6.810272V429.236283a74.534639 74.534639 0 0 1 74.534638-74.534639h127.503418a31.781267 31.781267 0 0 1 17.782376-18.917421 66.778496 66.778496 0 0 0 21.56586-113.504526C251.6017 162.878995 265.222243 88.911879 341.459449 13.620543a31.970442 31.970442 0 0 1 44.834288 45.401811C332.189913 113.504526 325.190467 148.123407 354.51247 178.769629a128.449289 128.449289 0 0 1 11.539627 175.932015h103.478293a31.970442 31.970442 0 0 1 17.593201-18.917421 66.778496 66.778496 0 0 0 21.755035-113.504526C450.991317 162.878995 465.557731 88.911879 541.605764 13.620543a31.970442 31.970442 0 0 1 45.023462 45.401811C532.336228 113.504526 525.336782 148.312581 554.280436 178.769629a128.449289 128.449289 0 0 1 11.350453 175.932015z m264.843895 294.73342a93.262886 93.262886 0 0 0 0-175.175319v175.175319z m-64.319232 103.667467v-6.999446-316.866802a10.593756 10.593756 0 0 0-3.215961-7.566968 10.215407 10.215407 0 0 0-7.566969-3.026788H141.691483a10.215407 10.215407 0 0 0-7.566968 3.026788 10.593756 10.593756 0 0 0-3.215962 7.566968v315.353408a4.161833 4.161833 0 0 0 0 1.513394v15.890634c0 103.099945 140.556438 193.336043 318.569371 193.336043S768.047294 865.093663 768.047294 761.993719a72.453723 72.453723 0 0 0 0-8.891188z" fill="#2E85ED" p-id="10481"></path></svg>