<?xml version="1.0" standalone="no"?><!DOCTYPE svg PUBLIC "-//W3C//DTD SVG 1.1//EN" "http://www.w3.org/Graphics/SVG/1.1/DTD/svg11.dtd"><svg t="1770881177698" class="icon" viewBox="0 0 1024 1024" version="1.1" xmlns="http://www.w3.org/2000/svg" p-id="12648" xmlns:xlink="http://www.w3.org/1999/xlink" width="200" height="200"><path d="M864 96H288L96 288v576c0 35.2 28.8 64 64 64h704c35.2 0 64-28.8 64-64V160c0-35.2-28.8-64-64-64z m-544 256c35.2 0 64 28.8 64 64s-28.8 64-64 64-64-28.8-64-64 28.8-64 64-64z m448 416H256l160-192 96 96 256-288v384z" fill="#984EE9" p-id="12649"></path><path d="M288 96v192H96z" fill="#FFFFFF" opacity=".25" p-id="12650"></path><path d="M288 288H96v192z" opacity=".2" p-id="12651"></path></svg>