<?xml version="1.0" standalone="no"?><!DOCTYPE svg PUBLIC "-//W3C//DTD SVG 1.1//EN" "http://www.w3.org/Graphics/SVG/1.1/DTD/svg11.dtd"><svg t="1755881063151" class="icon" viewBox="0 0 1024 1024" version="1.1" xmlns="http://www.w3.org/2000/svg" p-id="12983" xmlns:xlink="http://www.w3.org/1999/xlink" width="200" height="200"><path d="M75.851852 151.703704m37.925926 0l796.444444 0q37.925926 0 37.925926 37.925926l0 644.74074q0 37.925926-37.925926 37.925926l-796.444444 0q-37.925926 0-37.925926-37.925926l0-644.74074q0-37.925926 37.925926-37.925926Z" fill="#A961F1" p-id="12984"></path><path d="M891.259259 739.555556v75.851851h-75.851852v-75.851851h75.851852z m0-132.740741v75.851852h-75.851852v-75.851852h75.851852z m0-132.740741v75.851852h-75.851852v-75.851852h75.851852z m0-132.740741v75.851852h-75.851852v-75.851852h75.851852z m0-132.74074v75.851851h-75.851852V208.592593h75.851852zM208.592593 739.555556v75.851851H132.740741v-75.851851h75.851852z m0-132.740741v75.851852H132.740741v-75.851852h75.851852z m0-132.740741v75.851852H132.740741v-75.851852h75.851852z m0-132.740741v75.851852H132.740741v-75.851852h75.851852z m0-132.74074v75.851851H132.740741V208.592593h75.851852z" fill="#9350D6" p-id="12985"></path><path d="M417.185185 512h284.444445l-255.734519 153.429333A18.962963 18.962963 0 0 1 417.185185 649.178074V512z" fill="#EEDDFF" p-id="12986"></path><path d="M417.185185 512h284.444445l-255.734519-153.429333a18.962963 18.962963 0 0 0-28.709926 16.251259V512z" fill="#FFFFFF" p-id="12987"></path></svg>