<?xml version="1.0" encoding="UTF-8"?>
<svg width="48px" height="48px" viewBox="0 0 48 48" version="1.1" xmlns="http://www.w3.org/2000/svg" xmlns:xlink="http://www.w3.org/1999/xlink">
    <title>微信图标</title>
    <g stroke="none" stroke-width="1" fill="none" fill-rule="evenodd">
        <path d="M35.27,21.42 C35.04,12.51 27.31,5.44 18.06,5.44 C8.31,5.44 0.36,13.39 0.36,23.14 C0.36,27.87 2.51,32.17 6.07,35.11 C6.34,35.33 6.73,35.85 6.62,36.44 C6.4,37.63 5.92,40.02 5.92,40.02 C5.82,40.5 6.02,40.66 6.49,40.38 C6.49,40.38 9.9,38.23 10.83,37.57 C11.06,37.42 11.49,37.4 11.74,37.47 C13.76,38.01 15.91,38.31 18.14,38.31 C18.75,38.31 19.35,38.28 19.94,38.23 C19.4,36.91 19.09,35.46 19.09,33.95 C19.09,26.95 25.2,21.25 32.68,21.25 C33.68,21.25 34.64,21.37 35.56,21.6 C35.46,21.54 35.36,21.48 35.27,21.42 L35.27,21.42 Z M12.5,16.83 C10.94,16.83 9.67,15.56 9.67,14 C9.67,12.44 10.94,11.17 12.5,11.17 C14.06,11.17 15.33,12.44 15.33,14 C15.33,15.56 14.06,16.83 12.5,16.83 L12.5,16.83 Z M23.62,16.83 C22.06,16.83 20.78,15.56 20.78,14 C20.78,12.44 22.06,11.17 23.62,11.17 C25.18,11.17 26.45,12.44 26.45,14 C26.45,15.56 25.18,16.83 23.62,16.83 L23.62,16.83 Z M47.64,33.95 C47.64,26.05 41.1,19.72 33,19.72 C24.9,19.72 18.36,26.05 18.36,33.95 C18.36,41.85 24.9,48.18 33,48.18 C34.92,48.18 36.75,47.82 38.44,47.18 C38.67,47.09 39.05,47.07 39.26,47.2 C40.08,47.76 43.06,49.66 43.06,49.66 C43.47,49.89 43.64,49.75 43.55,49.32 C43.55,49.32 43.13,47.25 42.95,46.21 C42.84,45.71 43.17,45.25 43.4,45.07 C46.48,42.42 47.64,38.35 47.64,33.95 L47.64,33.95 Z M28.57,30.83 C27.18,30.83 26.05,29.7 26.05,28.31 C26.05,26.92 27.18,25.79 28.57,25.79 C29.96,25.79 31.09,26.92 31.09,28.31 C31.09,29.7 29.96,30.83 28.57,30.83 L28.57,30.83 Z M37.43,30.83 C36.04,30.83 34.91,29.7 34.91,28.31 C34.91,26.92 36.04,25.79 37.43,25.79 C38.82,25.79 39.95,26.92 39.95,28.31 C39.95,29.7 38.82,30.83 37.43,30.83 L37.43,30.83 Z" fill="#FFFFFF" fill-rule="nonzero"></path>
    </g>
</svg> 